<?xml version="1.0" standalone="no"?>
<!DOCTYPE svg PUBLIC "-//W3C//DTD SVG 20010904//EN"
 "http://www.w3.org/TR/2001/REC-SVG-20010904/DTD/svg10.dtd">
<svg version="1.0" xmlns="http://www.w3.org/2000/svg"
 width="482.000000pt" height="482.000000pt" viewBox="0 0 482.000000 482.000000"
 preserveAspectRatio="xMidYMid meet">
<metadata>
Created by potrace 1.14, written by Peter Selinger 2001-2017
</metadata>
<g transform="translate(0.000000,482.000000) scale(0.100000,-0.100000)"
fill="#000000" stroke="none">
<path d="M2330 3843 c-8 -3 -30 -12 -49 -20 -44 -20 -161 -30 -161 -14 0 6 7
11 16 11 8 0 12 5 9 11 -11 16 -85 2 -110 -21 -11 -11 -35 -25 -53 -31 -18 -6
-37 -19 -42 -30 -12 -21 -75 -53 -89 -45 -20 13 -67 -18 -137 -92 -41 -42 -74
-84 -74 -93 0 -18 -40 -59 -58 -59 -10 0 -17 -28 -13 -52 0 -5 -5 -8 -12 -8
-6 0 -22 -15 -34 -33 -22 -32 -29 -57 -17 -57 10 0 49 23 57 34 5 6 5 1 2 -11
-4 -15 -2 -23 6 -23 15 0 -39 -55 -55 -56 -6 0 -17 5 -25 10 -12 9 -12 7 -3
-11 8 -14 19 -20 32 -18 14 3 18 0 15 -8 -4 -7 3 0 15 16 12 15 26 25 31 21 5
-3 9 1 9 8 0 7 14 26 30 41 30 29 41 55 18 41 -7 -4 -9 -3 -5 1 10 12 37 15
37 5 0 -11 46 -19 60 -10 6 4 12 15 14 24 1 9 6 15 12 14 5 -2 8 -6 6 -10 -5
-16 66 -8 72 8 5 12 1 14 -17 9 -19 -5 -20 -5 -4 5 14 9 24 8 43 -4 17 -12 24
-13 24 -4 0 7 7 2 16 -10 19 -28 40 -28 47 -1 4 15 11 20 21 16 11 -4 16 -1
16 11 0 24 19 42 36 35 8 -3 21 0 29 7 9 7 18 10 22 6 3 -3 16 0 28 8 25 16
110 15 128 -3 8 -8 17 -4 35 16 18 22 21 23 13 6 -6 -12 -11 -24 -11 -27 0
-12 87 -1 105 13 14 11 16 11 8 1 -7 -8 -13 -23 -13 -34 0 -19 2 -19 25 6 14
15 25 32 25 39 0 6 7 8 16 5 12 -4 15 -2 11 9 -4 8 -1 17 6 21 7 4 9 4 5 -1
-11 -11 12 -36 26 -28 6 3 8 3 4 -2 -4 -4 3 -16 15 -26 12 -10 16 -18 10 -19
-7 0 -13 4 -13 9 0 5 -10 7 -22 3 -21 -5 -21 -6 -2 -13 16 -6 15 -8 -9 -8 -15
-1 -26 3 -25 8 2 5 -1 9 -7 9 -5 0 -9 -4 -7 -9 1 -5 -2 -9 -8 -9 -5 0 -10 -4
-10 -9 0 -4 11 -6 25 -3 14 2 25 0 25 -6 0 -7 17 -9 43 -7 80 7 101 13 114 31
11 14 13 15 13 2 0 -8 -10 -20 -22 -26 -22 -10 -22 -11 7 -13 17 -1 35 0 40 1
6 1 21 2 35 2 14 0 31 5 37 10 9 7 14 6 18 -6 3 -9 7 -23 10 -31 2 -8 9 -15
14 -15 7 0 7 9 2 23 -4 12 -6 27 -4 32 2 6 -6 38 -18 70 -22 64 -23 68 -16
131 4 40 -15 85 -30 71 -3 -4 2 -14 13 -22 13 -10 15 -14 5 -15 -7 0 -25 12
-38 26 -13 14 -30 24 -37 21 -10 -4 -10 2 -2 28 6 20 15 31 23 28 7 -3 10 -10
6 -17 -13 -20 -11 -34 4 -40 20 -8 61 25 55 44 -3 11 -1 12 7 4 14 -12 4 -47
-11 -38 -5 3 -3 -7 5 -22 8 -16 15 -46 15 -68 0 -21 5 -43 11 -49 15 -15 14
-44 -1 -50 -8 -3 -5 -6 6 -6 14 -1 16 -4 7 -15 -9 -10 -8 -16 3 -26 10 -8 13
-22 9 -41 -3 -19 -1 -29 6 -29 7 0 9 -5 5 -12 -13 -21 -10 -57 5 -63 9 -4 17
-1 19 4 6 17 22 2 22 -20 0 -11 7 -19 16 -19 8 0 12 -4 9 -10 -3 -5 -1 -10 5
-10 7 0 9 8 5 21 -6 17 -3 20 12 17 13 -2 18 -12 18 -34 0 -21 4 -30 12 -27
21 8 15 -21 -7 -35 -11 -7 -20 -21 -20 -32 0 -29 17 -24 25 7 l6 26 15 -28 c8
-15 14 -33 14 -40 0 -7 7 -18 15 -25 13 -11 15 -8 15 14 0 15 -6 29 -14 32
-12 4 -13 12 -5 32 6 14 8 37 4 49 -4 16 -1 23 10 23 8 0 15 7 15 15 0 22 17
18 23 -5 3 -12 1 -17 -5 -14 -5 4 -8 -7 -6 -27 2 -26 7 -34 21 -32 10 0 16 -1
13 -4 -3 -3 3 -22 14 -42 21 -41 44 -130 55 -206 6 -41 9 -46 17 -31 7 13 7
30 -1 56 -6 21 -8 45 -5 54 3 9 1 16 -5 16 -7 0 -7 8 1 26 10 21 9 27 -3 35
-10 6 -11 9 -1 9 7 0 10 5 7 10 -4 6 -10 8 -15 5 -5 -3 -11 -1 -14 4 -4 5 -2
12 4 16 6 4 8 11 5 16 -4 5 -1 9 5 9 7 0 10 -7 7 -14 -4 -10 -1 -13 9 -9 10 4
12 0 7 -13 -5 -13 -3 -15 8 -9 11 6 11 5 3 -4 -8 -9 -5 -20 14 -41 29 -33 51
-30 29 3 -18 29 -28 57 -19 56 22 -4 42 2 37 11 -3 6 -2 10 4 10 11 0 25 -75
17 -89 -4 -5 -2 -12 4 -16 6 -4 8 -10 5 -15 -3 -5 -1 -11 5 -15 7 -4 8 15 5
57 -11 148 -36 245 -58 231 -6 -4 -6 1 0 12 12 21 -5 75 -23 75 -6 0 -19 20
-29 45 -16 44 -59 96 -100 123 -11 7 -13 10 -5 7 8 -4 5 2 -7 13 -13 11 -23
25 -23 31 0 6 -9 15 -21 21 -11 7 -18 14 -15 17 11 11 -16 33 -41 33 -13 0
-26 6 -29 14 -8 21 -72 52 -122 61 -23 4 -42 10 -42 14 0 4 -10 7 -22 6 -13
-1 -36 4 -52 13 -31 15 -41 17 -156 27 -41 3 -88 7 -105 9 -16 2 -37 1 -45 -1z
m300 -72 c0 -5 -7 -12 -16 -15 -14 -5 -15 -4 -4 9 14 17 20 19 20 6z m185 -94
c0 -17 6 -32 14 -35 9 -3 11 0 6 8 -6 10 -3 10 10 2 10 -5 20 -17 21 -26 3
-19 -7 -21 -23 -5 -13 13 -36 3 -28 -12 3 -5 -1 -6 -10 -3 -14 6 -14 8 2 20
17 13 17 13 -2 15 -40 3 -45 4 -46 14 -1 6 -9 15 -18 22 -9 6 -12 15 -8 19 4
5 12 2 17 -6 7 -11 10 -11 10 -2 0 13 41 33 50 25 3 -3 5 -19 5 -36z m-308
-32 c0 -8 -4 -12 -9 -9 -5 3 -6 10 -3 15 9 13 12 11 12 -6z m-222 -15 c3 -6
-1 -7 -9 -4 -18 7 -21 14 -7 14 6 0 13 -4 16 -10z m385 -16 c0 -8 4 -13 9 -9
6 3 8 -4 6 -15 -2 -11 2 -20 8 -20 7 0 4 -6 -5 -14 -10 -7 -14 -17 -10 -21 4
-4 0 -5 -8 -3 -8 3 -31 -6 -50 -20 -19 -15 -29 -18 -21 -9 7 9 10 17 5 18 -5
0 10 9 33 19 50 22 54 50 7 50 -8 0 -13 -4 -10 -8 3 -5 -1 -9 -8 -9 -8 0 -12
6 -9 14 3 7 9 13 15 13 5 0 6 6 2 13 -5 7 0 6 11 -3 17 -14 17 -13 10 9 -5 16
-4 21 4 17 6 -4 11 -14 11 -22z m-71 7 c2 -1 -2 -7 -8 -14 -6 -8 -8 -17 -4
-20 3 -4 1 -7 -6 -7 -7 0 -9 -5 -5 -12 4 -7 3 -9 -1 -5 -13 11 -15 37 -3 37 7
0 6 5 -1 14 -12 14 -10 15 28 7z m-485 -33 c-5 -7 0 -9 14 -6 13 4 19 2 16 -6
-5 -12 -64 -18 -64 -5 0 4 8 13 18 18 22 13 25 13 16 -1z m131 -8 c-10 -11
-25 -20 -34 -19 -11 0 -9 3 5 9 12 5 25 13 29 19 3 6 9 11 12 11 3 0 -2 -9
-12 -20z m108 3 c-5 -12 -21 -12 -42 1 -8 5 -12 5 -9 0 2 -5 -7 -19 -20 -32
-13 -13 -22 -20 -20 -15 28 60 31 63 63 60 20 -1 31 -7 28 -14z m62 -3 c-3 -5
-11 -10 -16 -10 -6 0 -7 5 -4 10 3 6 11 10 16 10 6 0 7 -4 4 -10z m-49 -9 c-3
-5 0 -14 8 -20 11 -9 15 -9 19 1 4 10 7 10 18 -1 9 -9 9 -11 2 -7 -7 4 -13 3
-13 -3 0 -5 6 -12 13 -15 6 -3 1 -3 -13 0 -14 3 -31 13 -37 22 -12 15 -18 9
-14 -12 1 -5 -5 -4 -13 3 -16 13 -12 36 4 26 5 -3 11 -1 15 5 3 5 8 10 11 10
3 0 3 -4 0 -9z m-304 -33 c-7 -7 -10 -5 -7 8 5 29 6 30 12 16 3 -8 1 -18 -5
-24z m128 22 c0 -5 -5 -10 -11 -10 -5 0 -7 5 -4 10 3 6 8 10 11 10 2 0 4 -4 4
-10z m-423 -25 c0 -8 -7 -15 -16 -15 -13 0 -13 -2 -3 -9 21 -13 -31 -50 -63
-44 -13 3 -22 10 -19 15 3 5 12 7 20 4 7 -3 16 -1 20 5 3 6 13 8 21 5 9 -4 13
-1 10 6 -2 7 2 21 11 31 18 21 19 21 19 2z m563 -4 c0 -5 -7 -12 -16 -15 -24
-9 -28 -7 -14 9 14 17 30 20 30 6z m544 -16 c-3 -7 -12 -11 -19 -8 -11 4 -12
8 -2 18 15 16 28 10 21 -10z m46 10 c10 -12 10 -15 -4 -15 -9 0 -16 7 -16 15
0 8 2 15 4 15 2 0 9 -7 16 -15z m-1051 -9 l24 -13 -26 0 c-15 0 -24 3 -21 8 7
12 -3 11 -29 -2 -21 -10 -21 -10 -3 5 24 19 24 19 55 2z m159 -1 c3 -3 -3 -13
-13 -23 -11 -9 -16 -13 -12 -8 10 13 -12 36 -29 29 -7 -3 -11 -9 -8 -14 3 -5
-3 -9 -13 -9 -16 1 -15 3 5 20 20 17 56 20 70 5z m685 -17 c-3 -18 -9 -37 -14
-42 -4 -5 -5 -14 -3 -21 3 -7 1 -16 -5 -20 -11 -6 -16 14 -11 44 1 12 -1 12
-13 3 -8 -7 -25 -12 -38 -11 -13 1 -39 -2 -56 -6 -22 -5 -33 -4 -33 3 0 7 7 9
17 5 11 -4 14 -3 9 6 -5 8 -3 12 5 10 35 -4 59 2 59 16 0 8 9 15 20 15 11 0
20 -5 20 -11 0 -7 9 0 21 15 27 34 30 33 22 -6z m-453 8 c0 -3 -4 -8 -10 -11
-5 -3 -10 -1 -10 4 0 6 5 11 10 11 6 0 10 -2 10 -4z m100 -10 c0 -2 -7 -7 -16
-10 -8 -3 -12 -2 -9 4 6 10 25 14 25 6z m-410 -20 c0 -2 -8 -10 -17 -17 -16
-13 -17 -12 -4 4 13 16 21 21 21 13z m0 -41 c0 -2 -6 -8 -13 -14 -10 -8 -14
-7 -14 2 0 8 6 14 14 14 7 0 13 -1 13 -2z m11 -18 c-10 -9 -11 -8 -5 6 3 10 9
15 12 12 3 -3 0 -11 -7 -18z m689 13 c0 -5 -5 -10 -11 -10 -5 0 -7 5 -4 10 3
6 8 10 11 10 2 0 4 -4 4 -10z m250 6 c0 -3 -4 -8 -10 -11 -5 -3 -10 -1 -10 4
0 6 5 11 10 11 6 0 10 -2 10 -4z m-75 -20 c10 -10 11 -16 2 -25 -15 -15 -30
-14 -24 3 3 7 0 19 -6 25 -8 8 -8 11 2 11 7 0 19 -6 26 -14z m115 -35 c0 -10
9 -26 20 -36 11 -10 20 -22 20 -28 0 -5 -9 1 -20 14 -16 20 -19 21 -20 7 0 -9
-4 -19 -9 -22 -5 -4 -8 5 -6 19 2 18 -1 23 -10 15 -6 -5 -21 -8 -33 -5 -15 2
-19 0 -15 -11 3 -8 0 -14 -6 -14 -6 0 -11 5 -11 11 0 5 -3 8 -8 5 -11 -6 -47
23 -38 31 4 5 31 7 59 6 37 -1 47 1 36 9 -11 7 -8 9 9 5 18 -4 22 -2 18 9 -3
9 -1 12 4 9 6 -3 10 -14 10 -24z m-1343 -13 c6 -5 9 -16 6 -24 -8 -22 -22 -16
-16 7 5 18 3 20 -16 14 -20 -6 -29 4 -15 18 7 6 18 2 41 -15z m1444 -18 c6 0
7 6 3 13 -5 8 -2 7 9 -2 10 -8 16 -19 14 -25 -3 -6 2 -18 10 -28 11 -12 11
-18 2 -24 -8 -5 -10 -3 -4 6 5 9 4 11 -4 6 -6 -4 -9 -12 -5 -17 3 -5 9 -7 14
-4 5 3 11 1 14 -4 3 -5 -5 -11 -19 -13 -13 -3 -22 -1 -19 4 3 5 0 15 -6 23 -7
8 -9 15 -4 15 5 0 2 6 -6 13 -8 7 -16 23 -17 37 -1 14 1 19 3 13 3 -7 10 -13
15 -13z m101 -34 c-10 -16 -9 -60 3 -68 6 -4 2 -8 -8 -8 -12 0 -15 -4 -11 -12
4 -7 9 -25 11 -40 2 -22 0 -26 -14 -21 -11 4 -12 8 -5 11 9 3 9 9 0 25 -7 12
-11 26 -10 30 1 5 -2 6 -8 2 -5 -3 -10 -16 -10 -27 0 -18 -15 -18 -15 0 0 4
-4 13 -9 21 -7 11 -5 13 7 8 10 -3 17 -2 17 3 0 6 7 10 15 10 8 0 16 8 16 18
1 9 2 24 3 32 0 8 -3 18 -8 21 -5 4 -5 12 -1 18 5 9 10 9 21 0 7 -6 10 -16 6
-23z m-192 -86 c0 -5 -5 -10 -11 -10 -5 0 -7 5 -4 10 3 6 8 10 11 10 2 0 4 -4
4 -10z m220 -40 c0 -5 -2 -10 -4 -10 -3 0 -8 5 -11 10 -3 6 -1 10 4 10 6 0 11
-4 11 -10z"/>
<path d="M2785 3700 c-11 -5 -14 -9 -7 -9 6 -1 12 -11 12 -23 0 -28 12 -16 15
17 2 14 3 25 2 24 -1 0 -11 -4 -22 -9z"/>
<path d="M2766 3665 c-3 -8 -1 -15 4 -15 6 0 10 7 10 15 0 8 -2 15 -4 15 -2 0
-6 -7 -10 -15z"/>
<path d="M3044 3339 c-3 -6 -2 -15 3 -20 5 -5 9 -1 9 11 0 23 -2 24 -12 9z"/>
<path d="M2196 3453 c-6 -14 -5 -15 5 -6 7 7 10 15 7 18 -3 3 -9 -2 -12 -12z"/>
<path d="M2137 3437 c2 -4 -8 -5 -24 -1 l-28 6 23 -17 c21 -15 25 -15 47 -1
31 20 31 21 1 21 -13 0 -22 -4 -19 -8z"/>
<path d="M2011 3423 c15 -25 54 -31 62 -10 4 10 -2 13 -19 9 -13 -2 -32 2 -41
9 -15 13 -15 12 -2 -8z"/>
<path d="M2332 3428 c6 -18 54 -51 68 -46 6 2 -7 16 -30 31 -23 15 -40 22 -38
15z"/>
<path d="M2238 3413 c6 -2 18 -2 25 0 6 3 1 5 -13 5 -14 0 -19 -2 -12 -5z"/>
<path d="M2292 3369 c-13 -16 -21 -29 -17 -29 12 0 54 32 59 46 9 25 -18 14
-42 -17z"/>
<path d="M2460 3380 c0 -4 8 -11 18 -14 23 -9 61 -31 75 -45 6 -6 16 -11 22
-11 5 0 1 7 -9 15 -16 12 -17 15 -4 15 8 0 21 -7 28 -15 7 -8 23 -15 36 -15
12 0 35 -5 50 -10 15 -6 29 -8 32 -6 3 3 -4 9 -14 13 -10 4 -24 14 -31 22 -7
9 -13 12 -13 7 0 -5 -7 -3 -15 4 -12 10 -18 10 -30 0 -10 -9 -15 -9 -15 -1 0
6 -7 11 -15 11 -9 0 -27 7 -40 16 -26 17 -75 26 -75 14z"/>
<path d="M1960 3370 c-12 -8 -9 -10 12 -10 15 0 30 5 33 10 8 13 -25 13 -45 0z"/>
<path d="M2032 3373 c-6 -2 -10 -9 -7 -13 7 -11 35 -2 35 11 0 10 -8 10 -28 2z"/>
<path d="M2720 3337 c14 -8 27 -12 30 -10 7 6 -23 23 -40 23 -8 0 -4 -6 10
-13z"/>
<path d="M1462 3318 c-14 -14 -16 -38 -3 -38 5 0 11 11 13 25 6 29 6 29 -10
13z"/>
<path d="M1543 3315 c4 -5 0 -17 -10 -27 -9 -10 -14 -20 -11 -23 3 -3 13 6 22
19 12 19 13 27 3 32 -6 4 -9 3 -4 -1z"/>
<path d="M2028 3313 c7 -3 16 -2 19 1 4 3 -2 6 -13 5 -11 0 -14 -3 -6 -6z"/>
<path d="M2188 3293 c7 -3 16 -2 19 1 4 3 -2 6 -13 5 -11 0 -14 -3 -6 -6z"/>
<path d="M2480 3290 c0 -5 4 -10 9 -10 6 0 13 5 16 10 3 6 -1 10 -9 10 -9 0
-16 -4 -16 -10z"/>
<path d="M1469 3223 c0 -15 -3 -37 -5 -48 -11 -47 -10 -73 2 -68 8 3 11 -3 9
-14 -2 -10 -4 -22 -4 -26 -1 -5 -5 -5 -11 -2 -5 3 -10 -1 -10 -9 0 -9 6 -16
13 -16 7 0 8 -3 2 -8 -8 -6 -13 -201 -5 -224 1 -5 4 -29 6 -55 1 -27 6 -73 9
-103 4 -30 6 -148 5 -262 -2 -225 13 -361 54 -509 66 -236 87 -306 101 -331 8
-14 15 -33 15 -41 0 -20 64 -131 68 -118 2 5 -15 47 -37 94 -22 46 -51 128
-64 183 -14 54 -41 156 -60 226 -44 157 -56 283 -53 558 1 113 -2 216 -6 230
-17 61 -12 369 7 431 5 15 3 18 -12 12 -16 -6 -16 -5 -4 10 7 9 18 14 24 10 6
-3 7 -1 3 5 -4 6 0 22 9 35 13 21 14 26 1 36 -10 8 -16 9 -21 1 -9 -15 -25
-12 -19 4 3 8 1 17 -5 21 -7 4 -11 -5 -12 -22z"/>
<path d="M2867 3244 c-4 -4 -7 -14 -7 -23 0 -11 3 -12 11 -4 6 6 10 16 7 23
-2 6 -7 8 -11 4z"/>
<path d="M2975 3188 c5 -12 9 -51 9 -85 1 -35 5 -63 10 -63 5 0 3 -6 -3 -14
-7 -8 -11 -32 -10 -54 2 -30 6 -38 19 -35 13 3 15 17 12 76 -3 55 -1 69 8 61
6 -6 12 -34 13 -62 2 -58 9 -69 27 -47 23 28 -34 210 -73 235 -18 11 -19 10
-12 -12z"/>
<path d="M2860 3138 c0 -8 7 -23 15 -34 8 -10 15 -27 15 -36 0 -9 7 -24 16
-32 14 -14 18 -14 45 -1 29 15 29 16 12 39 -10 14 -19 19 -21 13 -12 -41 -13
-42 -24 -24 -7 13 -7 22 1 30 14 14 14 37 1 37 -5 0 -10 -8 -10 -17 0 -14 -3
-12 -13 6 -14 28 -37 39 -37 19z"/>
<path d="M3167 3133 c-10 -9 -9 -23 1 -23 5 0 9 7 9 15 0 17 -1 18 -10 8z"/>
<path d="M3118 3069 c-2 -6 -2 -26 0 -45 4 -30 6 -32 20 -18 11 12 12 18 3 23
-6 4 -9 15 -6 23 4 9 2 19 -3 22 -6 3 -12 1 -14 -5z"/>
<path d="M3176 3044 c-10 -25 -7 -34 9 -34 8 0 15 9 15 19 0 26 -16 35 -24 15z"/>
<path d="M2890 2981 c0 -22 6 -44 15 -51 8 -7 13 -15 11 -19 -2 -3 0 -15 4
-26 7 -19 8 -19 15 -2 8 20 -23 137 -37 137 -4 0 -8 -17 -8 -39z"/>
<path d="M2930 3001 c0 -11 5 -23 10 -26 6 -4 7 -12 4 -18 -5 -9 -4 -9 5 -1 7
7 11 22 9 35 -4 29 -28 38 -28 10z"/>
<path d="M3145 2980 c-3 -5 -1 -10 4 -10 6 0 11 5 11 10 0 6 -2 10 -4 10 -3 0
-8 -4 -11 -10z"/>
<path d="M3175 2979 c-10 -15 3 -25 16 -12 7 7 7 13 1 17 -6 3 -14 1 -17 -5z"/>
<path d="M3217 2980 c-9 -20 5 -102 18 -107 13 -4 18 46 6 61 -5 6 -11 22 -13
36 -3 18 -6 21 -11 10z"/>
<path d="M3133 2924 c-7 -18 11 -39 26 -30 17 11 13 46 -4 46 -9 0 -18 -7 -22
-16z"/>
<path d="M2990 2896 c0 -14 5 -26 10 -26 6 0 10 9 10 19 0 11 -4 23 -10 26 -6
4 -10 -5 -10 -19z"/>
<path d="M3190 2915 c-7 -77 -3 -188 8 -197 10 -9 11 -2 6 32 -5 31 -4 41 4
36 7 -4 12 -18 12 -32 0 -15 6 -24 15 -24 11 0 14 7 9 24 -3 13 -1 27 5 31 16
9 3 25 -20 25 -15 0 -19 7 -20 38 0 34 -16 91 -19 67z"/>
<path d="M3054 2881 c-2 -2 -4 -13 -4 -23 0 -22 18 -24 26 -3 5 12 9 13 20 4
9 -7 11 -16 6 -23 -11 -14 -8 -64 5 -77 8 -8 11 66 5 117 -2 11 -48 14 -58 5z"/>
<path d="M1506 2853 c9 -38 14 -42 14 -10 0 14 -5 29 -10 32 -7 4 -8 -3 -4
-22z"/>
<path d="M1545 2860 c-3 -5 -1 -10 4 -10 6 0 11 5 11 10 0 6 -2 10 -4 10 -3 0
-8 -4 -11 -10z"/>
<path d="M3131 2841 c-1 -27 2 -32 11 -23 8 8 8 17 0 34 -10 22 -11 21 -11
-11z"/>
<path d="M3220 2851 c0 -5 5 -13 10 -16 6 -3 10 -2 10 4 0 5 -4 13 -10 16 -5
3 -10 2 -10 -4z"/>
<path d="M3281 2789 c0 -31 -4 -59 -8 -63 -4 -4 -8 -15 -8 -24 0 -11 -7 -16
-19 -14 -11 2 -15 -1 -11 -8 7 -12 -11 -40 -26 -40 -5 0 -9 7 -9 15 0 8 -5 15
-10 15 -7 0 -9 -14 -5 -37 6 -37 6 -37 -11 -18 -16 20 -16 20 -11 -3 4 -18 2
-22 -9 -18 -8 3 -17 -1 -20 -9 -10 -25 -22 -17 -26 19 -2 23 2 42 14 56 19 24
24 50 9 50 -6 0 -13 -5 -16 -10 -4 -6 -11 -7 -17 -4 -16 10 -5 -151 12 -171
13 -16 7 -30 -12 -30 -6 0 -12 -25 -13 -56 -2 -31 -8 -66 -14 -77 -14 -27 -14
-32 3 -32 13 0 23 25 33 85 3 16 14 42 25 58 12 17 18 38 16 52 -3 14 0 26 8
29 8 3 14 1 14 -5 0 -6 4 -8 9 -5 5 3 7 15 4 27 -5 16 -2 20 13 17 14 -2 20 4
22 25 2 19 9 27 23 27 10 0 19 7 19 15 0 9 12 21 26 27 22 11 28 10 40 -7 8
-10 14 -42 14 -72 0 -30 5 -75 11 -99 13 -50 1 -171 -26 -260 -17 -59 -126
-228 -157 -246 -35 -19 -59 -20 -79 -3 -17 16 -36 5 -25 -14 4 -5 -1 -63 -10
-128 -32 -247 -33 -255 -14 -339 10 -43 26 -97 35 -119 23 -53 15 -135 -18
-201 -30 -58 -112 -175 -211 -299 -74 -92 -254 -346 -315 -445 -71 -115 -249
-408 -260 -429 l-12 -21 1281 0 1280 0 0 294 0 295 -156 0 c-86 1 -159 3 -162
5 -7 4 -312 17 -474 20 l-96 2 -76 58 c-42 32 -134 115 -204 185 -71 69 -144
134 -163 143 -19 9 -54 26 -79 37 -39 18 -56 37 -125 143 -44 67 -105 150
-135 185 -30 36 -55 67 -56 71 -2 15 -16 90 -26 135 -8 37 -7 73 5 155 9 59
19 133 22 164 4 32 9 57 13 57 32 -5 66 5 93 29 18 15 35 26 38 24 3 -1 6 5 7
14 2 9 16 35 32 58 62 86 87 156 105 288 11 76 11 104 1 148 -7 30 -13 76 -14
102 0 64 -14 96 -45 104 -20 5 -25 13 -26 38 -1 17 -5 45 -9 61 -6 25 -8 21
-9 -26z"/>
<path d="M3028 2808 c7 -7 12 -23 12 -37 0 -28 -16 -18 -22 13 -1 11 -9 21
-17 24 -10 3 -12 0 -7 -13 3 -10 12 -46 18 -81 17 -88 29 -85 43 10 6 39 9 44
19 31 9 -13 11 -8 7 27 -3 26 -6 34 -9 21 -4 -28 -22 -30 -22 -3 0 12 -7 20
-17 20 -13 0 -14 -3 -5 -12z"/>
<path d="M1526 2802 c-4 -7 -4 -17 -1 -23 4 -6 7 -35 7 -65 1 -58 13 -73 20
-24 6 37 -16 128 -26 112z"/>
<path d="M3136 2791 c-4 -5 -4 -15 -1 -23 2 -7 7 -26 9 -42 7 -37 26 -59 26
-29 0 12 -4 24 -9 27 -4 3 -7 21 -4 41 3 32 -8 47 -21 26z"/>
<path d="M2455 2700 c6 -10 4 -12 -8 -7 -10 3 -17 2 -17 -3 0 -5 -6 -7 -13 -4
-7 2 -21 -2 -32 -10 -20 -15 -20 -15 1 -11 24 4 84 -33 84 -52 0 -7 -5 -13
-11 -13 -5 0 -8 4 -5 9 7 10 -34 28 -86 37 -40 7 -50 20 -20 27 9 2 0 4 -20 4
-22 1 -36 -3 -35 -10 1 -7 -10 -10 -29 -9 -24 3 -33 -2 -42 -23 -17 -36 -14
-54 3 -31 13 17 15 18 15 3 0 -10 8 -17 21 -17 11 0 17 -4 14 -10 -3 -5 1 -10
9 -10 8 0 17 4 21 10 4 6 15 6 31 0 13 -5 41 -7 62 -4 l37 5 -31 -18 c-45 -26
-84 -59 -84 -72 0 -14 29 -3 63 26 16 13 32 23 37 23 4 0 10 -20 12 -45 3 -49
-10 -58 -47 -31 -15 11 -23 11 -43 0 -22 -11 -27 -11 -38 4 -18 24 -44 0 -28
-26 10 -15 24 -16 100 -12 122 6 146 5 169 -5 17 -7 18 -6 8 6 -9 11 -8 18 3
33 7 10 11 23 8 27 -3 5 -1 9 5 9 21 0 22 -22 1 -37 -21 -15 -21 -17 -5 -26
14 -7 21 -6 30 7 12 16 15 16 54 0 44 -18 57 -15 48 11 -4 8 -8 19 -9 23 -11
32 -115 109 -141 104 -21 -4 -13 -22 11 -22 18 0 117 -89 108 -97 -3 -3 -18 9
-35 27 -38 42 -106 73 -155 70 -28 -1 -37 2 -34 12 3 7 15 12 28 10 14 -2 20
0 16 7 -5 7 3 11 21 11 38 0 61 15 38 24 -9 3 -28 6 -41 6 -15 0 -24 6 -24 15
0 8 -5 15 -11 15 -6 0 -9 9 -6 20 3 11 0 23 -5 27 -7 4 -8 1 -3 -7z m-171 -68
c2 -4 -4 -9 -15 -9 -11 -1 -17 2 -14 8 7 11 22 12 29 1z"/>
<path d="M2477 2696 c-7 -17 20 -36 40 -29 6 2 23 -3 37 -12 16 -11 35 -15 51
-11 26 7 34 -7 13 -20 -17 -11 38 -24 72 -17 15 3 30 0 34 -5 7 -12 46 -4 46
9 0 14 -40 31 -68 28 -33 -3 -78 17 -114 49 -25 23 -68 24 -68 1 0 -5 -4 -9
-10 -9 -5 0 -9 5 -7 11 3 18 -20 22 -26 5z"/>
<path d="M2174 2665 c-7 -18 14 -47 27 -39 15 9 10 27 -5 21 -10 -4 -12 0 -9
14 6 22 -5 26 -13 4z"/>
<path d="M3048 2650 c-7 -16 -16 -30 -20 -30 -5 0 -8 -14 -8 -31 0 -16 4 -28
9 -24 16 9 21 -27 12 -88 -5 -39 -4 -56 3 -54 5 2 12 21 14 43 2 21 8 44 13
50 5 6 5 24 -1 43 -5 19 -7 53 -3 77 7 51 0 56 -19 14z"/>
<path d="M1553 2635 c-33 -34 -41 -59 -24 -69 11 -7 23 22 16 35 -4 5 1 6 9 3
9 -3 21 5 31 20 19 28 41 36 31 11 -4 -12 -2 -13 14 -3 22 14 16 24 -20 32
-20 5 -32 -1 -57 -29z"/>
<path d="M1698 2640 c-34 -10 -98 -61 -98 -78 0 -7 5 -10 11 -7 16 10 72 13
89 5 8 -4 53 -10 99 -14 66 -5 89 -11 103 -26 10 -11 23 -20 27 -20 14 0 22
-33 11 -44 -7 -7 -10 -3 -10 11 0 13 -8 24 -21 28 -31 10 -37 -4 -10 -26 l23
-19 -31 -6 c-18 -4 -30 -11 -28 -17 4 -13 57 -29 57 -17 0 4 6 10 14 13 17 7
10 -27 -14 -63 -21 -32 -43 -134 -35 -161 4 -13 3 -19 -2 -16 -6 4 -8 -4 -5
-20 3 -18 1 -24 -7 -19 -6 4 -11 5 -11 1 0 -3 -9 -37 -19 -75 -19 -69 -19 -69
0 -95 11 -14 16 -25 10 -25 -6 0 -11 -5 -11 -10 0 -6 6 -10 13 -9 17 3 48 -12
42 -21 -2 -4 8 -13 23 -21 15 -8 30 -18 35 -24 5 -6 12 -4 20 6 6 9 18 14 25
12 6 -3 12 2 12 11 0 9 -3 15 -7 15 -38 -6 -69 5 -99 35 -40 40 -42 61 -14
135 14 35 17 57 11 65 -12 14 1 38 19 34 7 -2 15 3 17 10 3 6 0 12 -5 12 -12
0 11 139 32 199 9 24 14 46 11 49 -3 3 2 16 10 29 14 21 12 27 -7 24 -5 0 -8
8 -8 20 0 13 -8 23 -21 26 -15 4 -19 11 -15 27 3 13 -3 31 -15 46 l-21 25 5
-36 c5 -32 3 -36 -13 -32 -11 3 -25 12 -32 21 -11 13 -10 15 5 9 19 -7 22 0 8
22 -11 18 -45 6 -38 -13 7 -19 -10 -25 -52 -18 -28 4 -33 2 -28 -10 4 -12 1
-14 -14 -11 -41 11 -12 39 49 49 23 4 42 10 42 14 0 10 -98 10 -132 0z m-1
-46 c-3 -3 -16 -4 -29 -2 l-23 5 25 10 c23 10 41 1 27 -13z"/>
<path d="M3285 2633 c-16 -15 -16 -17 0 -26 18 -10 35 5 35 31 0 17 -15 15
-35 -5z"/>
<path d="M2084 2624 c3 -9 6 -18 6 -20 0 -2 4 -4 10 -4 5 0 6 8 3 17 -5 12 -2
15 10 10 9 -3 17 -2 17 3 0 6 -12 10 -26 10 -20 0 -25 -4 -20 -16z"/>
<path d="M2160 2593 c0 -13 -4 -22 -9 -19 -13 8 -21 -18 -10 -35 6 -10 11 -11
17 -3 4 6 13 13 21 16 21 6 20 56 -1 61 -14 4 -18 -1 -18 -20z"/>
<path d="M2705 2570 c-3 -5 -1 -10 4 -10 6 0 11 5 11 10 0 6 -2 10 -4 10 -3 0
-8 -4 -11 -10z"/>
<path d="M2740 2571 c0 -16 28 -20 40 -5 10 12 8 14 -14 14 -14 0 -26 -4 -26
-9z"/>
<path d="M3288 2569 c-3 -8 -2 -23 2 -33 6 -18 7 -18 13 -2 4 10 3 25 -1 33
-7 12 -10 13 -14 2z"/>
<path d="M1575 2560 c3 -5 8 -10 11 -10 2 0 4 5 4 10 0 6 -5 10 -11 10 -5 0
-7 -4 -4 -10z"/>
<path d="M2348 2553 c7 -3 16 -2 19 1 4 3 -2 6 -13 5 -11 0 -14 -3 -6 -6z"/>
<path d="M1526 2523 c-4 -15 -4 -32 4 -63 1 -7 30 60 30 71 0 16 -29 9 -34 -8z"/>
<path d="M1745 2530 c-27 -3 -60 -11 -72 -18 -30 -17 -38 -15 -22 4 12 14 11
16 -5 13 -10 -2 -24 -20 -32 -44 -11 -34 -11 -41 1 -48 8 -4 15 -16 16 -25 0
-12 3 -11 9 6 9 21 30 31 30 15 1 -5 9 -18 20 -31 16 -20 22 -21 39 -10 24 15
27 28 7 28 -8 0 -24 9 -37 20 l-24 20 25 21 25 21 3 -28 c2 -16 13 -39 24 -51
16 -17 25 -20 45 -12 14 5 29 7 33 4 12 -7 26 21 34 67 7 40 10 38 -59 52 -5
1 -32 -1 -60 -4z"/>
<path d="M2242 2518 c-14 -14 -16 -44 -4 -52 4 -2 12 11 18 30 11 35 7 43 -14
22z"/>
<path d="M3304 2494 c4 -12 11 -42 15 -65 l9 -44 1 45 c0 27 -6 53 -15 65 -16
20 -16 20 -10 -1z"/>
<path d="M2175 2480 c-5 -8 10 -50 19 -50 1 0 1 14 -2 30 -5 32 -7 36 -17 20z"/>
<path d="M3187 2448 c-5 -16 10 -48 23 -48 6 0 10 14 10 30 0 30 -24 43 -33
18z"/>
<path d="M1590 2416 c0 -9 5 -16 10 -16 6 0 10 4 10 9 0 6 -4 13 -10 16 -5 3
-10 -1 -10 -9z"/>
<path d="M2200 2401 c5 -11 15 -23 21 -27 6 -3 3 5 -6 20 -20 30 -30 35 -15 7z"/>
<path d="M2400 2410 c-12 -8 -10 -10 8 -10 13 0 20 4 17 10 -7 12 -6 12 -25 0z"/>
<path d="M3036 2393 c-12 -12 -6 -43 9 -43 8 0 15 9 15 19 0 21 -13 34 -24 24z"/>
<path d="M3174 2379 c-3 -6 -1 -16 5 -22 8 -8 11 -5 11 11 0 24 -5 28 -16 11z"/>
<path d="M3140 2361 c0 -11 5 -23 10 -26 6 -3 10 3 10 14 0 11 -4 23 -10 26
-5 3 -10 -3 -10 -14z"/>
<path d="M2270 2340 c8 -5 20 -10 25 -10 6 0 3 5 -5 10 -8 5 -19 10 -25 10 -5
0 -3 -5 5 -10z"/>
<path d="M1715 2320 c-3 -5 -1 -10 4 -10 6 0 11 5 11 10 0 6 -2 10 -4 10 -3 0
-8 -4 -11 -10z"/>
<path d="M3160 2315 c0 -5 5 -17 10 -25 5 -8 10 -10 10 -5 0 6 -5 17 -10 25
-5 8 -10 11 -10 5z"/>
<path d="M2950 2279 c0 -11 5 -17 10 -14 6 3 10 13 10 21 0 8 -4 14 -10 14 -5
0 -10 -9 -10 -21z"/>
<path d="M3207 2260 c-38 -17 -77 -62 -77 -89 0 -9 6 -11 18 -6 9 4 26 7 37 7
16 -1 17 1 5 8 -21 13 0 44 33 48 29 4 52 26 42 42 -8 13 -12 12 -58 -10z"/>
<path d="M3268 2206 c-19 -14 -26 -42 -8 -31 9 6 34 45 28 45 -2 0 -11 -7 -20
-14z"/>
<path d="M3081 2184 c0 -11 3 -14 6 -6 3 7 2 16 -1 19 -3 4 -6 -2 -5 -13z"/>
<path d="M1721 2164 c0 -11 3 -14 6 -6 3 7 2 16 -1 19 -3 4 -6 -2 -5 -13z"/>
<path d="M1647 2093 c-4 -3 -7 -11 -7 -17 0 -6 5 -5 12 2 6 6 9 14 7 17 -3 3
-9 2 -12 -2z"/>
<path d="M2904 2089 c-9 -15 13 -36 25 -23 6 5 4 14 -4 21 -10 9 -16 10 -21 2z"/>
<path d="M2241 1988 c-13 -25 -18 -27 -88 -27 -41 0 -81 -5 -88 -11 -7 -6 -17
-10 -21 -9 -21 3 -28 -2 -14 -11 13 -9 13 -10 0 -10 -12 0 -12 -2 -1 -9 7 -5
14 -22 15 -38 2 -16 5 -34 8 -39 4 -5 9 -26 13 -47 5 -23 13 -37 22 -37 20 0
13 50 -15 111 -13 28 -17 48 -11 55 5 6 48 14 96 17 47 4 90 10 95 15 5 5 8
22 6 38 l-3 28 -14 -26z"/>
<path d="M2866 1955 c-3 -8 -1 -15 4 -15 6 0 10 7 10 15 0 8 -2 15 -4 15 -2 0
-6 -7 -10 -15z"/>
<path d="M1955 1950 c3 -5 8 -10 11 -10 2 0 4 5 4 10 0 6 -5 10 -11 10 -5 0
-7 -4 -4 -10z"/>
<path d="M1800 1900 c-14 -15 -26 -35 -27 -45 -1 -12 8 -7 28 17 15 18 28 39
29 46 0 15 0 15 -30 -18z"/>
<path d="M1943 1815 c-13 -14 -7 -25 14 -25 14 0 18 26 6 33 -5 3 -13 -1 -20
-8z"/>
<path d="M2625 1820 c3 -5 8 -10 11 -10 2 0 4 5 4 10 0 6 -5 10 -11 10 -5 0
-7 -4 -4 -10z"/>
<path d="M2956 1753 c-6 -14 -5 -15 5 -6 7 7 10 15 7 18 -3 3 -9 -2 -12 -12z"/>
<path d="M1983 1714 c20 -21 73 -24 207 -10 53 5 71 4 60 -3 -8 -6 -27 -11
-42 -11 -15 0 -29 -4 -32 -8 -5 -8 -156 -6 -211 2 -16 3 -59 8 -95 11 -60 6
-64 5 -46 -9 11 -9 26 -16 34 -16 8 0 12 -6 8 -15 -3 -9 0 -15 9 -15 9 0 12 6
8 15 -5 14 2 15 43 10 27 -4 53 -10 57 -15 11 -10 105 -3 235 17 109 16 134
14 81 -8 -17 -8 -52 -24 -78 -37 l-46 -22 40 6 c22 3 42 10 43 15 2 5 13 9 24
9 10 0 39 13 63 30 23 16 61 32 84 36 23 4 39 9 35 13 -7 7 -252 12 -394 8
-30 -1 -66 2 -80 7 -24 8 -24 8 -7 -10z"/>
<path d="M2922 1677 c-16 -29 -37 -59 -46 -66 -9 -7 -16 -19 -16 -27 0 -7 -10
-20 -22 -28 -12 -9 -19 -16 -15 -16 5 0 1 -10 -8 -22 -8 -13 -20 -23 -27 -23
-15 0 -34 -32 -24 -42 14 -14 114 109 152 187 21 41 39 78 41 83 2 4 2 7 0 7
-3 0 -19 -24 -35 -53z"/>
<path d="M1923 1713 c9 -2 23 -2 30 0 6 3 -1 5 -18 5 -16 0 -22 -2 -12 -5z"/>
<path d="M1651 1664 c0 -11 3 -14 6 -6 3 7 2 16 -1 19 -3 4 -6 -2 -5 -13z"/>
<path d="M1895 1620 c7 -12 45 -14 45 -2 0 4 -11 9 -26 10 -14 1 -23 -2 -19
-8z"/>
<path d="M1811 1584 c0 -11 3 -14 6 -6 3 7 2 16 -1 19 -3 4 -6 -2 -5 -13z"/>
<path d="M1681 1574 c0 -11 3 -14 6 -6 3 7 2 16 -1 19 -3 4 -6 -2 -5 -13z"/>
<path d="M2053 1561 c-39 -4 -60 -10 -55 -16 4 -5 12 -11 17 -12 6 -1 18 -5
28 -8 10 -4 17 -3 17 4 0 6 19 11 46 11 27 0 43 -4 39 -10 -3 -5 1 -10 9 -10
9 0 16 4 16 8 0 12 -35 42 -46 40 -5 -1 -37 -4 -71 -7z"/>
<path d="M1920 1550 c0 -5 5 -10 11 -10 5 0 7 5 4 10 -3 6 -8 10 -11 10 -2 0
-4 -4 -4 -10z"/>
<path d="M2972 1518 c-32 -59 -151 -161 -169 -146 -7 6 -14 7 -14 2 -1 -5 -2
-15 -3 -22 -1 -13 -22 -27 -146 -97 -240 -137 -302 -175 -359 -218 -35 -26
-83 -57 -108 -69 l-44 -21 -35 34 c-19 18 -32 39 -29 47 2 7 1 11 -3 8 -4 -2
-12 -2 -18 2 -18 13 -84 99 -84 110 0 6 -6 15 -13 19 -7 4 -26 25 -41 46 -29
38 -46 47 -46 25 0 -30 203 -285 247 -311 l32 -18 148 99 c81 55 204 130 273
167 295 161 450 288 450 369 0 27 -14 18 -38 -26z"/>
<path d="M1845 1449 c-4 -6 0 -18 9 -27 15 -15 16 -15 16 5 0 25 -15 38 -25
22z"/>
<path d="M2720 1406 c-5 -5 -10 -18 -10 -27 0 -18 -69 -79 -90 -79 -6 0 -9 -4
-6 -9 4 -5 0 -11 -6 -14 -7 -2 -11 -7 -8 -10 10 -11 116 82 145 127 13 20 13
23 0 23 -8 0 -19 -5 -25 -11z"/>
<path d="M1955 1390 c-3 -5 1 -10 9 -10 9 0 16 5 16 10 0 6 -4 10 -9 10 -6 0
-13 -4 -16 -10z"/>
<path d="M2021 1374 c0 -11 3 -14 6 -6 3 7 2 16 -1 19 -3 4 -6 -2 -5 -13z"/>
<path d="M1827 1249 c-3 -23 -1 -67 4 -98 17 -94 -5 -122 -146 -195 -52 -26
-104 -42 -200 -61 -71 -14 -142 -25 -157 -25 -84 0 -337 -88 -418 -145 l-45
-31 -330 -17 c-181 -10 -376 -20 -432 -23 l-103 -6 0 -324 0 -324 814 0 813 0
43 153 c23 83 64 219 90 300 53 162 54 191 3 44 -23 -64 -31 -80 -27 -52 7 59
32 144 83 285 l46 125 -2 150 c-1 229 -21 357 -36 244z"/>
<path d="M2425 1280 c-3 -5 1 -10 9 -10 9 0 16 5 16 10 0 6 -4 10 -9 10 -6 0
-13 -4 -16 -10z"/>
<path d="M1951 1244 c0 -11 3 -14 6 -6 3 7 2 16 -1 19 -3 4 -6 -2 -5 -13z"/>
<path d="M2522 1235 c-38 -21 -50 -37 -15 -20 18 9 35 20 38 26 7 11 7 11 -23
-6z"/>
<path d="M2250 1231 c0 -5 5 -13 10 -16 6 -3 10 -2 10 4 0 5 -4 13 -10 16 -5
3 -10 2 -10 -4z"/>
<path d="M2360 1210 c0 -5 5 -10 10 -10 6 0 10 5 10 10 0 6 -4 10 -10 10 -5 0
-10 -4 -10 -10z"/>
<path d="M2445 1190 c-3 -6 1 -7 9 -4 18 7 21 14 7 14 -6 0 -13 -4 -16 -10z"/>
<path d="M2410 1170 c-9 -6 -10 -10 -3 -10 6 0 15 5 18 10 8 12 4 12 -15 0z"/>
<path d="M2308 1140 c-46 -25 -58 -42 -21 -30 41 12 103 39 103 45 0 12 -48 3
-82 -15z"/>
<path d="M2057 1109 c7 -7 15 -10 18 -7 3 3 -2 9 -12 12 -14 6 -15 5 -6 -5z"/>
<path d="M1922 949 c2 -48 -30 -186 -53 -232 -20 -38 -39 -149 -24 -135 11 10
60 163 85 264 19 72 19 83 6 109 l-15 28 1 -34z"/>
<path d="M1986 924 c-5 -13 0 -15 35 -9 32 6 40 4 34 -5 -5 -9 -4 -11 3 -6 17
10 15 -29 -2 -43 -8 -6 -16 -20 -19 -31 -4 -17 1 -15 39 12 l44 31 -35 34
c-37 36 -88 45 -99 17z"/>
<path d="M2188 893 c6 -2 12 -10 12 -17 0 -6 27 -41 61 -76 33 -36 72 -83 86
-105 15 -22 35 -46 45 -54 13 -9 16 -17 10 -23 -7 -7 0 -21 21 -42 18 -18 44
-47 58 -66 29 -38 48 -36 28 2 -19 36 -138 199 -175 238 -18 19 -56 61 -85 93
-28 31 -57 57 -63 56 -6 0 -6 -3 2 -6z"/>
<path d="M1966 873 c-6 -14 -5 -15 5 -6 7 7 10 15 7 18 -3 3 -9 -2 -12 -12z"/>
<path d="M1926 738 c-33 -103 -38 -136 -17 -112 19 22 49 114 54 167 4 31 4
57 3 57 -2 0 -20 -50 -40 -112z"/>
<path d="M2127 774 c-4 -4 -7 -24 -7 -45 0 -36 2 -39 35 -45 55 -10 67 -1 63
48 -3 42 -4 43 -43 46 -23 2 -44 0 -48 -4z m43 -28 c0 -3 -4 -8 -10 -11 -5 -3
-10 -1 -10 4 0 6 5 11 10 11 6 0 10 -2 10 -4z m7 -33 c-9 -9 -20 -13 -24 -9
-4 4 -1 11 7 16 25 16 35 11 17 -7z"/>
<path d="M2023 704 c11 -65 27 -112 43 -128 18 -19 5 -51 -26 -61 -25 -8 -55
-66 -65 -125 -4 -25 -14 -62 -21 -82 -7 -21 -10 -38 -5 -38 4 0 18 35 31 78
35 113 55 149 95 168 35 16 43 28 26 39 -16 9 -39 63 -52 121 -14 64 -35 88
-26 28z"/>
<path d="M2120 535 c0 -8 4 -15 9 -15 5 0 11 7 15 15 3 9 0 15 -9 15 -8 0 -15
-7 -15 -15z"/>
<path d="M2228 285 c-25 -52 -41 -92 -35 -88 11 7 90 174 84 179 -2 2 -24 -39
-49 -91z"/>
<path d="M1860 335 c0 -8 2 -15 4 -15 2 0 6 7 10 15 3 8 1 15 -4 15 -6 0 -10
-7 -10 -15z"/>
<path d="M1835 208 c-10 -40 -20 -82 -20 -93 -1 -11 -6 -31 -12 -45 -22 -53
-25 -70 -11 -70 16 0 80 248 69 267 -4 8 -15 -16 -26 -59z"/>
<path d="M1930 236 c-15 -42 -11 -55 6 -17 8 19 12 36 9 39 -2 3 -9 -7 -15
-22z"/>
<path d="M2155 130 c4 -6 11 -8 16 -5 14 9 11 15 -7 15 -8 0 -12 -5 -9 -10z"/>
<path d="M2237 48 c-26 -45 -28 -66 -2 -32 14 19 37 74 30 74 -1 0 -14 -19
-28 -42z"/>
<path d="M1948 58 c-25 -30 -23 -58 3 -58 13 0 18 4 13 13 -6 9 -4 9 7 -1 7
-6 26 -12 41 -12 22 0 28 5 28 21 0 57 -58 81 -92 37z"/>
</g>
</svg>
